<svg xmlns="http://www.w3.org/2000/svg" width="24" height="24" viewBox="0 0 24 24"><path d="M23.016 8.016c0 1.078-.938 1.969-2.016 1.969-.188 0-.375 0-.516-.047l-3.563 3.563c.047.141.094.328.094.516 0 1.078-.938 1.969-2.016 1.969s-2.016-.891-2.016-1.969c0-.188.047-.375.094-.516l-2.578-2.578c-.141.047-.328.094-.516.094s-.375-.047-.516-.094L4.92 15.47c.047.141.094.328.094.516 0 1.078-.938 2.016-2.016 2.016S.982 17.064.982 15.986s.938-1.969 2.016-1.969c.188 0 .375 0 .516.047l4.547-4.547c-.047-.141-.047-.328-.047-.516 0-1.078.891-2.016 1.969-2.016s2.016.938 2.016 2.016c0 .188 0 .375-.047.516l2.531 2.531c.141-.047.328-.047.516-.047s.375 0 .516.047l3.563-3.516a1.683 1.683 0 0 1-.094-.516C18.984 6.938 19.922 6 21 6s2.016.938 2.016 2.016z"/></svg>