<svg xmlns="http://www.w3.org/2000/svg" xmlns:xlink="http://www.w3.org/1999/xlink"><symbol viewBox="0 0 24 24" id="check"><path d="M9 16.172L19.594 5.578 21 6.984l-12 12-5.578-5.578L4.828 12z"/></symbol><symbol viewBox="0 0 24 24" id="dashboard"><path d="M12.984 3H21v6h-8.016V3zm0 18v-9.984H21V21h-8.016zM3 21v-6h8.016v6H3zm0-8.016V3h8.016v9.984H3z"/></symbol><symbol viewBox="0 0 24 24" id="exit_to_app"><path d="M18.984 3C20.062 3 21 3.938 21 5.016v13.969c0 1.078-.938 2.016-2.016 2.016H5.015c-1.125 0-2.016-.938-2.016-2.016v-3.984h2.016v3.984h13.969V5.016H5.015V9H2.999V5.016C2.999 3.938 3.89 3 5.015 3h13.969zm-8.906 12.609l2.578-2.625H3v-1.969h9.656L10.078 8.39l1.406-1.406L16.5 12l-5.016 5.016z"/></symbol><symbol viewBox="0 0 24 24" id="expand_more"><path d="M16.594 8.578L18 9.984l-6 6-6-6 1.406-1.406L12 13.172z"/></symbol><symbol viewBox="0 0 24 24" id="format_indent_decrease"><path d="M11.016 12.984v-1.969H21v1.969h-9.984zm0-3.984V6.984H21V9h-9.984zM3 3h18v2.016H3V3zm0 18v-2.016h18V21H3zm0-9l3.984-3.984v7.969zm8.016 5.016V15H21v2.016h-9.984z"/></symbol><symbol viewBox="0 0 24 24" id="format_indent_increase"><path d="M11.016 12.984v-1.969H21v1.969h-9.984zm0-3.984V6.984H21V9h-9.984zM3 3h18v2.016H3V3zm8.016 14.016V15H21v2.016h-9.984zM3 8.016L6.984 12 3 15.984V8.015zM3 21v-2.016h18V21H3z"/></symbol><symbol viewBox="0 0 24 24" id="format_list_bulleted"><path d="M6.984 5.016H21v1.969H6.984V5.016zm0 7.968v-1.969H21v1.969H6.984zm0 6v-1.969H21v1.969H6.984zm-3-2.484c.844 0 1.5.703 1.5 1.5s-.703 1.5-1.5 1.5-1.5-.703-1.5-1.5.656-1.5 1.5-1.5zm0-12c.844 0 1.5.656 1.5 1.5s-.656 1.5-1.5 1.5-1.5-.656-1.5-1.5.656-1.5 1.5-1.5zm0 6c.844 0 1.5.656 1.5 1.5s-.656 1.5-1.5 1.5-1.5-.656-1.5-1.5.656-1.5 1.5-1.5z"/></symbol><symbol viewBox="0 0 24 24" id="grid_on"><path d="M20.016 8.016V3.985h-4.031v4.031h4.031zm0 6V9.985h-4.031v4.031h4.031zm0 6v-4.031h-4.031v4.031h4.031zm-6-12V3.985H9.985v4.031h4.031zm0 6V9.985H9.985v4.031h4.031zm0 6v-4.031H9.985v4.031h4.031zm-6-12V3.985H3.985v4.031h4.031zm0 6V9.985H3.985v4.031h4.031zm0 6v-4.031H3.985v4.031h4.031zm12-18c1.078 0 1.969.891 1.969 1.969v16.031a1.981 1.981 0 0 1-1.969 1.969H3.985a1.981 1.981 0 0 1-1.969-1.969V3.985c0-1.078.891-1.969 1.969-1.969h16.031z"/></symbol><symbol viewBox="0 0 24 24" id="lock_outline"><path d="M18 20.016V9.985H6v10.031h12zM8.906 6v2.016h6.188V6c0-1.688-1.406-3.094-3.094-3.094S8.906 4.312 8.906 6zM18 8.016c1.078 0 2.016.891 2.016 1.969v10.031c0 1.078-.938 1.969-2.016 1.969H6c-1.078 0-2.016-.891-2.016-1.969V9.985c0-1.078.938-1.969 2.016-1.969h.984V6C6.984 3.234 9.234.984 12 .984S17.016 3.234 17.016 6v2.016H18zm-6 9c-1.078 0-2.016-.938-2.016-2.016s.938-2.016 2.016-2.016 2.016.938 2.016 2.016-.938 2.016-2.016 2.016z"/></symbol><symbol viewBox="0 0 24 24" id="mail_outline"><path d="M12 11.016L20.016 6H3.985zM20.016 18V8.016L12 12.985 3.984 8.016V18h16.031zm0-14.016c1.078 0 1.969.938 1.969 2.016v12c0 1.078-.891 2.016-1.969 2.016H3.985c-1.078 0-1.969-.938-1.969-2.016V6c0-1.078.891-2.016 1.969-2.016h16.031z"/></symbol><symbol viewBox="0 0 24 24" id="navigate_next"><path d="M9.984 6l6 6-6 6-1.406-1.406L13.172 12 8.578 7.406z"/></symbol><symbol viewBox="0 0 24 24" id="notifications_none"><path d="M15.984 17.016v-6c0-2.484-1.5-4.5-3.984-4.5s-3.984 2.016-3.984 4.5v6h7.969zM18 15.984L20.016 18v.984H3.985V18l2.016-2.016v-4.969c0-3.094 1.641-5.625 4.5-6.328v-.703c0-.844.656-1.5 1.5-1.5s1.5.656 1.5 1.5v.703c2.859.703 4.5 3.281 4.5 6.328v4.969zm-6 6c-1.078 0-2.016-.891-2.016-1.969h4.031c0 1.078-.938 1.969-2.016 1.969z"/></symbol><symbol viewBox="0 0 24 24" id="person"><path d="M12 14.016c2.672 0 8.016 1.313 8.016 3.984v2.016H3.985V18c0-2.672 5.344-3.984 8.016-3.984zM12 12c-2.203 0-3.984-1.781-3.984-3.984S9.797 3.985 12 3.985s3.984 1.828 3.984 4.031S14.203 12 12 12z"/></symbol><symbol viewBox="0 0 32 32" id="refresh"><path d="M23.563 8.438l3.125-3.125v9.375h-9.375l4.313-4.313C20.188 8.937 18.188 8 16.001 8c-4.438 0-8 3.563-8 8s3.563 8 8 8c3.5 0 6.5-2.188 7.563-5.313h2.75c-1.188 4.625-5.313 8-10.313 8-5.875 0-10.625-4.813-10.625-10.688s4.75-10.688 10.625-10.688c2.938 0 5.625 1.188 7.563 3.125z"/></symbol><symbol viewBox="0 0 32 32" id="settings"><path d="M16 20.688c2.563 0 4.688-2.125 4.688-4.688S18.563 11.312 16 11.312 11.312 13.437 11.312 16s2.125 4.688 4.688 4.688zm9.938-3.375l2.813 2.188c.25.188.313.563.125.875l-2.688 4.625c-.188.313-.5.375-.813.25l-3.313-1.313c-.688.5-1.438 1-2.25 1.313l-.5 3.5c-.063.313-.313.563-.625.563h-5.375c-.313 0-.563-.25-.625-.563l-.5-3.5a8.148 8.148 0 0 1-2.25-1.313l-3.313 1.313c-.313.125-.625.063-.813-.25l-2.688-4.625c-.188-.313-.125-.688.125-.875l2.813-2.188c-.063-.438-.063-.875-.063-1.313s0-.875.063-1.313l-2.813-2.188c-.25-.188-.313-.563-.125-.875l2.688-4.625c.188-.313.5-.375.813-.25l3.313 1.313c.688-.5 1.438-1 2.25-1.313l.5-3.5c.063-.313.313-.563.625-.563h5.375c.313 0 .563.25.625.563l.5 3.5c.813.313 1.563.75 2.25 1.313l3.313-1.313c.313-.125.625-.063.813.25l2.688 4.625c.188.313.125.688-.125.875l-2.813 2.188c.063.438.063.875.063 1.313s0 .875-.063 1.313z"/></symbol><symbol viewBox="0 0 24 24" id="show_chart"><path d="M3.516 18.469l-1.5-1.5 7.5-7.5L13.5 13.5l7.078-7.969 1.406 1.406L13.5 16.5l-3.984-4.031z"/></symbol><symbol viewBox="0 0 24 24" id="timeline"><path d="M23.016 8.016c0 1.078-.938 1.969-2.016 1.969-.188 0-.375 0-.516-.047l-3.563 3.563c.047.141.094.328.094.516 0 1.078-.938 1.969-2.016 1.969s-2.016-.891-2.016-1.969c0-.188.047-.375.094-.516l-2.578-2.578c-.141.047-.328.094-.516.094s-.375-.047-.516-.094L4.92 15.47c.047.141.094.328.094.516 0 1.078-.938 2.016-2.016 2.016S.982 17.064.982 15.986s.938-1.969 2.016-1.969c.188 0 .375 0 .516.047l4.547-4.547c-.047-.141-.047-.328-.047-.516 0-1.078.891-2.016 1.969-2.016s2.016.938 2.016 2.016c0 .188 0 .375-.047.516l2.531 2.531c.141-.047.328-.047.516-.047s.375 0 .516.047l3.563-3.516a1.683 1.683 0 0 1-.094-.516C18.984 6.938 19.922 6 21 6s2.016.938 2.016 2.016z"/></symbol></svg>